<svg xmlns="http://www.w3.org/2000/svg" width="16" height="16" viewBox="0 0 16 16">
    <path fill="#486BFF" fill-rule="nonzero" d="M13.841 7.6c.08.08.159.24.159.4 0 .16-.08.32-.159.4a.605.605 0 0 1-.397.16H8.517v4.88c0 .16-.08.24-.16.4-.079.16-.238.16-.397.16a.605.605 0 0 1-.397-.16.613.613 0 0 1-.159-.4V8.56H2.556c-.159 0-.238-.08-.397-.16A.613.613 0 0 1 2 8c0-.16.08-.32.159-.4.159-.08.238-.16.397-.16h4.848V2.56c0-.16.08-.32.159-.4.08-.08.238-.16.397-.16.16 0 .318.08.398.16.08.08.159.24.159.4v4.88h4.927c.159 0 .318.08.397.16z"/>
</svg>
